# xmcd
#
# Track frame offsets: 
#        150
#        15416
#        32436
#        42056
#        55449
#        68108
#        74921
#        87958
#        101415
#        118232
#        134344
#        155721
#        172479
#        185198
#        202143
#        222977
#        236692
#        255472
#        268316
#        282367
#        298509
#        312984
#
# Disc length: 4400 seconds
#
# Revision: 0
# Processed by: cddbd v1.5.2PL0 Copyright (c) Steve Scherf et al.
# Submitted via: ExactAudioCopy v0.99pb5
#
DISCID=64112e16
DTITLE=Pino Daniele - The Best Platinum Collection
DYEAR=2007
DGENRE=Blues
TTITLE0='Na Tazzulella 'E Cafè
TTITLE1=Napule E'
TTITLE2=Terra Mia
TTITLE3=Che Calore
TTITLE4=Cammina Cammina
TTITLE5=Chi Po Dicere
TTITLE6=Maronna Mia
TTITLE7=Je So' Pazzo
TTITLE8=Jè Sto' Vicino A Te
TTITLE9=Basta 'Na Jurnata E Sole
TTITLE10=Ue Man!
TTITLE11=Il Mare
TTITLE12=Chillo E' Nu Buono Guaglione
TTITLE13=Putesse Essere Allero
TTITLE14=Quanno Chiove
TTITLE15=A Me Me Piace 'O Blues
TTITLE16=I Say I' Sto Ccà
TTITLE17=Musica Musica
TTITLE18=Puozze Passa' Nu Guaio
TTITLE19=Nun Me Scoccià
TTITLE20=Alleria
TTITLE21=A Testa In Giù
EXTD=
EXTT0=
EXTT1=
EXTT2=
EXTT3=
EXTT4=
EXTT5=
EXTT6=
EXTT7=
EXTT8=
EXTT9=
EXTT10=
EXTT11=
EXTT12=
EXTT13=
EXTT14=
EXTT15=
EXTT16=
EXTT17=
EXTT18=
EXTT19=
EXTT20=
EXTT21=
PLAYORDER=
